PathFileType	4	(X/Y/Z)	C:\Users\°ÂÌØÂü\Desktop\20210112\bx_y_0_1802-Unnamed.trc
DataRate	CameraRate	NumFrames	NumMarkers	Units	OrigDataRate	OrigDataStartFrame	OrigNumFrames
50.00	50.00	       4	0	mm	50.00	141	       375
Frame#	Time	
		

141	2.800	-485.89145	-78.55647	1155.41321	-701.32825	82.51363	208.48099	-750.89075	292.10263	753.77399	-666.82697	235.97113	759.67688	-674.63391	-65.31322	622.64740				-549.41284	61.88573	541.44397	-583.05127	282.66083	526.67419	-541.13397	-0.24411	466.85373	-638.99719	280.18646	469.27420	-532.20630	238.30528	478.44931	-960.33972	92.22233	903.16425	-664.30621	-64.90240	164.57414	-696.48370	151.74828	207.85570	-760.55371	221.72295	205.64037	-882.57593	295.99933	144.63803	-601.77545	19.43144	165.48563	-673.61121	171.42853	153.92268	-593.66486	222.48564	173.86603	-666.95740	297.44748	161.53421	-559.09576	262.64996	164.46986	-528.09167	304.13754	146.53134	-332.32541	104.81878	1422.43494	-489.45337	280.81238	1178.36536	-625.21289	-78.63010	158.22397	-517.50122	-73.15273	142.97745	-629.48975	305.60446	163.46967				-754.84882	0.32964	210.84294	-790.45441	62.81539	178.62163	-790.68225	167.17923	188.73651				-648.51477	-46.23254	460.88718	-876.30176	-78.26328	141.15726				-590.05719	-49.54529	560.87018	-579.64264	-47.18776	520.05463	-561.08691	-44.36583	163.18832							-666.02936	-18.35392	751.46527	-535.53107	179.61913	538.87323	-672.54791	58.45496	153.20363				-755.31586	-78.54341	736.98395	
142	2.820	-483.55728	-78.14257	1146.66528	-701.73938	83.19199	207.43112	-750.98688	292.12674	750.02692	-667.17596	236.07379	757.36713	-673.37341	-65.22400	620.05566	-608.49835	280.14325	565.96844	-547.56177	61.87240	540.68732	-581.00763	283.17792	525.67322	-539.28607	0.00925	466.03946	-636.84503	281.27390	468.49902	-529.56195	239.24602	477.69180	-960.56915	91.70274	898.11328	-663.95587	-64.46328	164.86771	-696.79303	151.92465	207.39818	-760.22144	221.62225	205.56425	-882.67096	296.15009	144.68153	-601.59729	19.40853	165.29420	-673.61121	171.42853	153.92268	-593.61823	222.52617	173.95726	-666.99060	297.49854	161.44485	-559.35101	262.92969	164.24634	-528.03583	304.25760	146.54501	-330.36557	105.56004	1413.15332	-486.88608	281.64420	1169.74792	-624.84570	-78.23783	158.84818	-517.69879	-72.86388	142.89441	-629.63086	305.65405	163.40213				-754.51880	0.56271	210.96082	-790.02014	63.17219	177.96689	-790.64545	167.11557	188.85161				-646.43396	-46.15956	460.43076	-876.19580	-78.61780	141.10544				-588.53363	-49.56978	559.95581	-577.32330	-47.17661	518.95966	-561.08691	-44.36583	163.18832							-667.06787	-18.39444	749.12152	-534.24506	179.75436	537.34125	-672.23004	58.72873	153.49081				-755.69153	-78.53794	733.85687	
143	2.840	-481.11691	-77.47297	1137.35498	-701.70697	83.47179	207.33202	-751.35071	292.28055	746.44318	-668.95422	235.51172	754.03094	-672.38367	-65.96634	618.09619	-607.06921	280.84583	564.54437	-545.39435	62.41698	540.39221	-579.14423	283.36832	524.03949	-537.43689	0.47446	465.18832	-635.68701	280.77988	467.24130	-528.03564	239.43352	476.40460	-961.02258	91.91708	892.95416	-663.97357	-64.23404	164.93384	-696.89337	151.77429	207.38060	-760.15869	221.32555	205.78030	-882.55322	296.09085	144.51955	-601.62103	19.44805	165.20644	-673.57361	171.18857	153.76889	-593.64752	222.45522	173.86523	-667.15546	297.09003	161.79994	-559.23676	262.95374	164.34447	-528.02759	304.34650	146.51938	-328.74661	106.14859	1403.94983	-484.25388	281.89493	1160.10498	-625.26440	-78.09706	158.76561	-517.44183	-72.85994	143.16051	-629.68225	305.69894	163.37769				-754.23242	1.01212	210.88034	-789.93396	63.52277	178.23532	-790.39532	166.79601	188.78511				-644.38055	-46.42469	459.75098	-876.04242	-78.50433	140.96730				-586.92224	-49.53052	558.33734	-575.77869	-47.43314	517.82477	-561.26917	-44.40643	163.37776							-667.67480	-17.87087	746.45844	-532.16656	179.81015	536.85510	-671.99561	59.31367	152.94936				-756.05585	-78.61879	730.35175	
144	2.860	-479.23669	-76.75655	1128.67126	-701.42224	83.52934	207.18709	-751.49933	292.35266	742.42126	-669.72900	235.72334	751.68011	-671.88171	-66.07884	615.33136	-605.98242	280.93686	562.26459	-544.42529	62.21999	538.52405	-577.40485	283.90503	522.98206	-535.87140	0.53010	464.21561	-634.09802	282.04330	466.75537	-526.74402	239.97647	475.32764	-961.66302	92.17030	887.57605	-663.96674	-63.83710	165.17874	-696.37061	151.78146	207.69905	-759.95380	221.30658	205.98528	-882.72949	296.08905	144.54922	-601.34351	19.56068	165.19179	-673.56439	171.43159	153.57542	-593.66486	222.48564	173.86603	-667.14911	297.19766	161.89256	-559.35004	262.86957	164.15248	-528.07770	304.24625	146.45256	-327.09378	107.00169	1394.85181	-482.12006	283.01495	1151.34607	-625.11670	-77.75230	159.25021	-517.48254	-72.70038	142.91287	-629.63287	305.35242	163.29181				-754.11578	1.32278	210.84380	-790.14008	64.00448	178.70802	-790.19263	166.59404	188.78006				-643.46899	-46.56583	458.89453	-875.84747	-78.73531	140.96178				-584.92261	-49.99589	557.15247	-574.01410	-47.40358	516.89441	-561.14935	-44.39458	163.29771							-668.45020	-17.67587	743.97699	-530.28430	180.05569	535.99524	-671.79437	59.59303	152.49129				-755.86591	-78.77264	727.14142	
